<?xml version="1.0" encoding="utf-8"?>
<!-- Generator: Adobe Illustrator 25.3.1, SVG Export Plug-In . SVG Version: 6.00 Build 0)  -->
<svg version="1.1" id="Layer_1" xmlns="http://www.w3.org/2000/svg" xmlns:xlink="http://www.w3.org/1999/xlink" x="0px" y="0px"
	 viewBox="0 0 4807 3606" style="enable-background:new 0 0 4807 3606;" xml:space="preserve">
<style type="text/css">
	.st0{enable-background:new    ;}
	.st1{fill:url(#SVGID_1_);}
	.st2{fill:url(#SVGID_2_);}
	.st3{fill:url(#SVGID_3_);}
	.st4{fill:url(#SVGID_4_);}
	.st5{fill:url(#SVGID_5_);}
	.st6{fill:url(#SVGID_6_);}
	.st7{fill:url(#SVGID_7_);}
	.st8{fill:url(#SVGID_8_);}
	.st9{fill:url(#SVGID_9_);}
	.st10{fill:url(#SVGID_10_);}
	.st11{fill:url(#SVGID_11_);}
	.st12{fill:url(#SVGID_12_);}
	.st13{fill:url(#SVGID_13_);}
	.st14{fill:url(#SVGID_14_);}
	.st15{fill:url(#SVGID_15_);}
	.st16{fill:url(#SVGID_16_);}
	.st17{fill:url(#SVGID_17_);}
	.st18{fill:url(#SVGID_18_);}
	.st19{fill:url(#SVGID_19_);}
	.st20{fill:url(#SVGID_20_);}
	.st21{fill:url(#SVGID_21_);}
	.st22{fill:url(#SVGID_22_);}
	.st23{font-family:'Cavalier-Regular';}
	.st24{font-size:53.039px;}
	.st25{fill:none;stroke:#FFFFFF;stroke-width:17;stroke-linejoin:round;}
	.st26{fill-rule:evenodd;clip-rule:evenodd;}
	.st27{fill-rule:evenodd;clip-rule:evenodd;fill:none;stroke:#000000;stroke-width:80;stroke-miterlimit:10;}
	.st28{fill-rule:evenodd;clip-rule:evenodd;fill:url(#SVGID_23_);}
	.st29{fill:url(#SVGID_24_);}
	.st30{fill:url(#SVGID_25_);}
	.st31{fill:url(#SVGID_26_);}
	.st32{fill:url(#SVGID_27_);}
</style>
<g id="O" class="st0">
	<g>
		<linearGradient id="SVGID_1_" gradientUnits="userSpaceOnUse" x1="1840.4558" y1="2035.6069" x2="1711.3533" y2="2767.7837">
			<stop  offset="0" style="stop-color:#E8B333"/>
			<stop  offset="0.1536" style="stop-color:#FDD065"/>
			<stop  offset="0.5483" style="stop-color:#D3AF59"/>
			<stop  offset="0.6453" style="stop-color:#F6D179"/>
			<stop  offset="0.861" style="stop-color:#F8C835"/>
			<stop  offset="0.9538" style="stop-color:#F8C835"/>
		</linearGradient>
		<path class="st1" d="M1777.6,2034c118.5,0,208.4,29.5,269.7,88.4c61.3,59,92,144.2,92,255.6c0,126.8-32.3,223.6-96.8,290.5
			c-64.6,66.9-155.2,100.4-271.9,100.4c-117.9,0-207.7-30.2-269.3-90.7c-61.6-60.4-92.4-143.4-92.4-249c0-50.7,9.4-105.7,28.3-165
			c18.9-59.3,55.7-112.5,110.5-159.6C1602.4,2057.6,1679.1,2034,1777.6,2034z M1519.3,2325.9c0,126.2,23.7,226.6,71.2,301.2
			c47.5,74.6,122.2,111.9,224.2,111.9c81.4,0,138-22.7,169.8-68.1c31.8-45.4,47.8-108.8,47.8-190.2c0-72.5-7.5-139.2-22.6-199.9
			c-15-60.7-44.1-112.3-87.1-154.8c-43-42.5-102.9-63.7-179.5-63.7c-67.2,0-121.3,19.9-162.3,59.7
			C1539.8,2161.8,1519.3,2229.8,1519.3,2325.9z"/>
	</g>
</g>
<g id="The_hotel_of_hospitality" class="st0">
	<g>
		<linearGradient id="SVGID_2_" gradientUnits="userSpaceOnUse" x1="2497.1892" y1="3082.332" x2="2497.1892" y2="2839.042">
			<stop  offset="0" style="stop-color:#E8B333"/>
			<stop  offset="0.1536" style="stop-color:#FDD065"/>
			<stop  offset="0.5483" style="stop-color:#D3AF59"/>
			<stop  offset="0.6453" style="stop-color:#F6D179"/>
			<stop  offset="0.861" style="stop-color:#F8C835"/>
			<stop  offset="0.9538" style="stop-color:#F8C835"/>
		</linearGradient>
		<path class="st2" d="M1684.6,2839c-9.9,10.5-20.4,17.9-31.5,22.1s-24.4,6.3-39.7,6.3h-70.5c3.2,0,10.4,2.7,21.4,8.1
			c11.1,5.4,21.7,14.9,31.9,28.6c10.2,13.6,15.3,32,15.3,55.1c0,31.2-8.7,54.6-26,70.3c-17.4,15.7-38.9,23.5-64.6,23.5
			c-23.7,0-41.5-7.2-53.2-21.7c-11.7-14.5-17.6-29.6-17.6-45.4c0-17.3,4.6-31.9,13.9-43.7c9.3-11.9,22.8-17.8,40.6-17.8
			c11.8,0,21.8,3.9,30.2,11.8c8.3,7.8,12.5,17.7,12.5,29.7c0,8.1-2.7,15-8,20.8c-5.3,5.8-10.9,9.6-16.7,11.4c3.1-5.2,5.4-9.9,7-14.3
			c1.6-4.4,2.4-9.7,2.4-16c0-12-2.9-21-8.7-27.3c-5.8-6.2-13.3-9.3-22.5-9.3c-8.9,0-17.9,4.3-26.9,13c-9,8.6-13.6,20.6-13.6,35.7
			c0,18.3,5.8,33.7,17.4,46.3c11.6,12.6,26.6,18.9,44.8,18.9c19.2,0,33.5-8,42.9-24c9.4-16,14.1-34.4,14.1-55.1
			c0-32.9-6.9-57.5-20.6-73.8c-13.7-16.4-31.1-24.5-52.1-24.5c-17.3,0-30.2,3.8-38.8,11.4c-8.6,7.6-16.6,19.3-24.2,35.1
			c0-22.3,8.3-39.6,24.8-51.8c16.6-12.3,36-18.4,58.3-18.4h24.2h19.1h15.3h12.1h9.4h7.5h5.6h4.6h3.6h2.7c2.4,0,4.4,0,5.8,0
			c1.5,0,2.5,0,3.1,0c4.8,0,11.7-0.5,20.5-1.4C1669.3,2841.3,1677.3,2840.3,1684.6,2839z"/>
		<linearGradient id="SVGID_3_" gradientUnits="userSpaceOnUse" x1="2497.1892" y1="3082.332" x2="2497.1892" y2="2839.042">
			<stop  offset="0" style="stop-color:#E8B333"/>
			<stop  offset="0.1536" style="stop-color:#FDD065"/>
			<stop  offset="0.5483" style="stop-color:#D3AF59"/>
			<stop  offset="0.6453" style="stop-color:#F6D179"/>
			<stop  offset="0.861" style="stop-color:#F8C835"/>
			<stop  offset="0.9538" style="stop-color:#F8C835"/>
		</linearGradient>
		<path class="st3" d="M1709.3,2919.5v67.8c0.2,2.1,1.1,3.2,2.9,3.2c2.4,0,7-2.4,13.8-7.3c-2.3,4.9-5.6,9.3-10.1,13.3
			c-4.4,3.9-9.4,5.9-14.9,5.9c-5.5,0-9.4-1.7-11.6-5.2c-2.3-3.5-3.4-7.7-3.4-12.8v-52.5c0-3.4-0.3-6-1-7.9c-0.6-1.9-2.7-2.8-6.1-2.8
			c-5.3,0-10.9,4-16.7,11.9c-5.8,7.9-8.7,13.5-8.7,16.7v28.7c0,6.2-2.3,11.7-6.8,16.5c-4.5,4.9-10.1,7.3-16.7,7.3v-120.8
			c0-11.6,3.1-21.5,9.4-29.7s14.5-12.3,24.7-12.3h21.8c-5.2,9.4-11.9,14.3-20.1,14.9c-8.2,0.6-12.4,2.1-12.4,4.5v78.2
			c8-13.6,15.7-23.7,23-30.3c7.3-6.6,13.5-9.9,18.5-9.9c5.8,0,9.6,1.6,11.5,4.8C1708.3,2905.1,1709.3,2911,1709.3,2919.5z"/>
		<linearGradient id="SVGID_4_" gradientUnits="userSpaceOnUse" x1="2497.1892" y1="3082.332" x2="2497.1892" y2="2839.042">
			<stop  offset="0" style="stop-color:#E8B333"/>
			<stop  offset="0.1536" style="stop-color:#FDD065"/>
			<stop  offset="0.5483" style="stop-color:#D3AF59"/>
			<stop  offset="0.6453" style="stop-color:#F6D179"/>
			<stop  offset="0.861" style="stop-color:#F8C835"/>
			<stop  offset="0.9538" style="stop-color:#F8C835"/>
		</linearGradient>
		<path class="st4" d="M1791.2,2896.5c6.3,0,11.5,1.1,15.6,3.4c4.1,2.3,9.7,7,16.8,14.1l-58.9,59.1c3.2,5.3,7.2,8.8,12,10.3
			c4.8,1.5,10.1,2.3,16.1,2.3c6,0,11.6-1.4,16.8-4.2c5.2-2.8,10-5.8,14.2-8.9c-6.5,9.9-13.6,17.4-21.3,22.3
			c-7.8,5-16.6,7.4-26.7,7.4c-14.4,0-24.6-4.6-30.5-13.8c-6-9.2-9-19.2-9-29.9c0-18.8,5.2-33.8,15.7-45.2
			C1762.7,2902.2,1775.7,2896.5,1791.2,2896.5z M1762.6,2967.5c5.7-5.5,11.3-11,17-16.5c8.6-9.2,12.8-16.2,12.8-20.9
			c0-5.7-1.4-10.1-4.1-13.3c-2.7-3.2-6.4-4.7-10.9-4.7c-5.7,0-10.1,3.4-13.3,10.1c-3.2,6.7-4.8,14.7-4.8,24c0,3.9,0.2,7.6,0.7,11.1
			C1760.4,2960.6,1761.3,2964.1,1762.6,2967.5z"/>
		<linearGradient id="SVGID_5_" gradientUnits="userSpaceOnUse" x1="2497.1892" y1="3082.332" x2="2497.1892" y2="2839.042">
			<stop  offset="0" style="stop-color:#E8B333"/>
			<stop  offset="0.1536" style="stop-color:#FDD065"/>
			<stop  offset="0.5483" style="stop-color:#D3AF59"/>
			<stop  offset="0.6453" style="stop-color:#F6D179"/>
			<stop  offset="0.861" style="stop-color:#F8C835"/>
			<stop  offset="0.9538" style="stop-color:#F8C835"/>
		</linearGradient>
		<path class="st5" d="M1974.3,2919.5v67.8c0.2,2.1,1.1,3.2,2.9,3.2c2.4,0,7-2.4,13.8-7.3c-2.3,4.9-5.6,9.3-10.1,13.3
			c-4.4,3.9-9.4,5.9-14.9,5.9c-5.5,0-9.4-1.7-11.6-5.2c-2.3-3.5-3.4-7.7-3.4-12.8v-52.5c0-3.4-0.3-6-1-7.9c-0.6-1.9-2.7-2.8-6.1-2.8
			c-5.3,0-10.9,4-16.7,11.9c-5.8,7.9-8.7,13.5-8.7,16.7v28.7c0,6.2-2.3,11.7-6.8,16.5c-4.5,4.9-10.1,7.3-16.7,7.3v-120.8
			c0-11.6,3.1-21.5,9.4-29.7s14.5-12.3,24.7-12.3h21.8c-5.2,9.4-11.9,14.3-20.1,14.9c-8.2,0.6-12.4,2.1-12.4,4.5v78.2
			c8-13.6,15.7-23.7,23-30.3c7.3-6.6,13.5-9.9,18.5-9.9c5.8,0,9.6,1.6,11.5,4.8C1973.4,2905.1,1974.3,2911,1974.3,2919.5z"/>
		<linearGradient id="SVGID_6_" gradientUnits="userSpaceOnUse" x1="2497.1892" y1="3082.332" x2="2497.1892" y2="2839.042">
			<stop  offset="0" style="stop-color:#E8B333"/>
			<stop  offset="0.1536" style="stop-color:#FDD065"/>
			<stop  offset="0.5483" style="stop-color:#D3AF59"/>
			<stop  offset="0.6453" style="stop-color:#F6D179"/>
			<stop  offset="0.861" style="stop-color:#F8C835"/>
			<stop  offset="0.9538" style="stop-color:#F8C835"/>
		</linearGradient>
		<path class="st6" d="M2053.3,2896.3c13.2,0,23.6,4.8,31.1,14.3s11.3,21.3,11.3,35.3c0,14.8-5.5,28-16.5,39.4
			c-11,11.4-23.3,17.2-36.8,17.2c-12.8,0-22.9-4.8-30.5-14.4c-7.6-9.6-11.4-21.6-11.4-36.1c0-14.5,5.3-27.4,16-38.7
			S2039.4,2896.3,2053.3,2896.3z M2021.8,2937.6c0,13.2,1.7,25.4,5.2,36.5c3.5,11.1,11.3,16.7,23.4,16.7c6.9,0,12.6-2.9,17-8.7
			s6.5-13.2,6.5-22.2c0-13-2.2-25-6.5-35.9c-4.4-10.9-11.8-16.3-22.3-16.3c-7.1,0-12.8,2.8-17,8.5
			C2023.9,2921.8,2021.8,2928.9,2021.8,2937.6z"/>
		<linearGradient id="SVGID_7_" gradientUnits="userSpaceOnUse" x1="2497.1892" y1="3082.332" x2="2497.1892" y2="2839.042">
			<stop  offset="0" style="stop-color:#E8B333"/>
			<stop  offset="0.1536" style="stop-color:#FDD065"/>
			<stop  offset="0.5483" style="stop-color:#D3AF59"/>
			<stop  offset="0.6453" style="stop-color:#F6D179"/>
			<stop  offset="0.861" style="stop-color:#F8C835"/>
			<stop  offset="0.9538" style="stop-color:#F8C835"/>
		</linearGradient>
		<path class="st7" d="M2138.4,2897.2h19.9c-2.1,4.7-5.1,7.5-8.8,8.6c-3.8,1-7.5,1.7-11,1.8v73.2c0,3.5,1.4,5.3,4.1,5.3
			c2.3,0,5.1-1.1,8.6-3.2c3.5-2.1,7.6-5.4,12.5-9.9c-4.5,8.5-9.9,15.5-16,21c-6.1,5.5-12.4,8.3-18.7,8.3c-4.8,0-8.2-2-10.1-5.9
			c-1.9-3.9-2.8-11-2.8-21.1v-67.6h-14.3c0.5-3.7,4.8-7.8,13-12.4c8.2-4.6,16-16.5,23.6-35.9V2897.2z"/>
		<linearGradient id="SVGID_8_" gradientUnits="userSpaceOnUse" x1="2497.1892" y1="3082.332" x2="2497.1892" y2="2839.042">
			<stop  offset="0" style="stop-color:#E8B333"/>
			<stop  offset="0.1536" style="stop-color:#FDD065"/>
			<stop  offset="0.5483" style="stop-color:#D3AF59"/>
			<stop  offset="0.6453" style="stop-color:#F6D179"/>
			<stop  offset="0.861" style="stop-color:#F8C835"/>
			<stop  offset="0.9538" style="stop-color:#F8C835"/>
		</linearGradient>
		<path class="st8" d="M2229.7,2896.5c6.3,0,11.5,1.1,15.6,3.4c4.1,2.3,9.7,7,16.8,14.1l-58.9,59.1c3.2,5.3,7.2,8.8,12,10.3
			c4.8,1.5,10.1,2.3,16.1,2.3c6,0,11.6-1.4,16.8-4.2c5.2-2.8,10-5.8,14.2-8.9c-6.5,9.9-13.6,17.4-21.3,22.3
			c-7.8,5-16.6,7.4-26.7,7.4c-14.4,0-24.6-4.6-30.5-13.8c-6-9.2-9-19.2-9-29.9c0-18.8,5.2-33.8,15.7-45.2
			C2201.2,2902.2,2214.2,2896.5,2229.7,2896.5z M2201.1,2967.5c5.7-5.5,11.3-11,17-16.5c8.6-9.2,12.8-16.2,12.8-20.9
			c0-5.7-1.4-10.1-4.1-13.3c-2.7-3.2-6.4-4.7-10.9-4.7c-5.7,0-10.1,3.4-13.3,10.1c-3.2,6.7-4.8,14.7-4.8,24c0,3.9,0.2,7.6,0.7,11.1
			C2198.9,2960.6,2199.8,2964.1,2201.1,2967.5z"/>
		<linearGradient id="SVGID_9_" gradientUnits="userSpaceOnUse" x1="2497.1892" y1="3082.332" x2="2497.1892" y2="2839.042">
			<stop  offset="0" style="stop-color:#E8B333"/>
			<stop  offset="0.1536" style="stop-color:#FDD065"/>
			<stop  offset="0.5483" style="stop-color:#D3AF59"/>
			<stop  offset="0.6453" style="stop-color:#F6D179"/>
			<stop  offset="0.861" style="stop-color:#F8C835"/>
			<stop  offset="0.9538" style="stop-color:#F8C835"/>
		</linearGradient>
		<path class="st9" d="M2272.8,2881.4c0-11.6,3.2-21.5,9.6-29.6c6.4-8.1,14.7-12.2,24.8-12.2h21.8c-5.2,9.4-11.9,14.3-20.1,14.9
			c-8.2,0.6-12.4,2.1-12.4,4.5v123.3c0,2.9,1.1,4.4,3.4,4.4c1.9,0,4.6-1.1,7.9-3.3c3.3-2.2,7-5,11-8.6c-4,7.4-9.2,13.8-15.4,19.3
			c-6.2,5.5-11.8,8.3-16.8,8.3c-4.8,0-8.4-1.8-10.5-5.4c-2.2-3.6-3.3-8.6-3.3-14.9V2881.4z"/>
		<linearGradient id="SVGID_10_" gradientUnits="userSpaceOnUse" x1="2497.1892" y1="3082.332" x2="2497.1892" y2="2839.042">
			<stop  offset="0" style="stop-color:#E8B333"/>
			<stop  offset="0.1536" style="stop-color:#FDD065"/>
			<stop  offset="0.5483" style="stop-color:#D3AF59"/>
			<stop  offset="0.6453" style="stop-color:#F6D179"/>
			<stop  offset="0.861" style="stop-color:#F8C835"/>
			<stop  offset="0.9538" style="stop-color:#F8C835"/>
		</linearGradient>
		<path class="st10" d="M2441,2896.3c13.2,0,23.6,4.8,31.1,14.3s11.3,21.3,11.3,35.3c0,14.8-5.5,28-16.5,39.4
			c-11,11.4-23.3,17.2-36.8,17.2c-12.8,0-22.9-4.8-30.5-14.4c-7.6-9.6-11.4-21.6-11.4-36.1c0-14.5,5.3-27.4,16-38.7
			S2427.1,2896.3,2441,2896.3z M2409.5,2937.6c0,13.2,1.7,25.4,5.2,36.5c3.5,11.1,11.3,16.7,23.4,16.7c6.9,0,12.6-2.9,17-8.7
			s6.5-13.2,6.5-22.2c0-13-2.2-25-6.5-35.9c-4.4-10.9-11.8-16.3-22.3-16.3c-7.1,0-12.8,2.8-17,8.5
			C2411.6,2921.8,2409.5,2928.9,2409.5,2937.6z"/>
		<linearGradient id="SVGID_11_" gradientUnits="userSpaceOnUse" x1="2497.1892" y1="3082.332" x2="2497.1892" y2="2839.042">
			<stop  offset="0" style="stop-color:#E8B333"/>
			<stop  offset="0.1536" style="stop-color:#FDD065"/>
			<stop  offset="0.5483" style="stop-color:#D3AF59"/>
			<stop  offset="0.6453" style="stop-color:#F6D179"/>
			<stop  offset="0.861" style="stop-color:#F8C835"/>
			<stop  offset="0.9538" style="stop-color:#F8C835"/>
		</linearGradient>
		<path class="st11" d="M2559.5,2892.2c-3.2,7.3-7.1,12.4-11.5,15.1c-4.4,2.7-10.6,4.1-18.5,4.1v101c0,24.4-4.4,42.1-13.2,53.1
			c-8.8,11-19,16.5-30.6,16.5h-25.7c3.2-10.5,11.9-15.9,26.1-16.2c14.1-0.3,21.2-6.1,21.2-17.2v-137.1h-17l12.8-14.3h4.1v-11.8
			c0-12.4,3.1-23.1,9.3-32.1c6.2-9,14.4-13.5,24.6-13.5h46.5c-4,6.9-9.2,11.3-15.6,13.1c-6.4,1.8-14.4,2.7-24.1,2.7
			c-7.9,0-13,0.2-15.1,0.6s-3.3,2.1-3.3,5.2v35.9C2547.8,2897,2557.8,2895.4,2559.5,2892.2z"/>
		<linearGradient id="SVGID_12_" gradientUnits="userSpaceOnUse" x1="2497.1892" y1="3082.332" x2="2497.1892" y2="2839.042">
			<stop  offset="0" style="stop-color:#E8B333"/>
			<stop  offset="0.1536" style="stop-color:#FDD065"/>
			<stop  offset="0.5483" style="stop-color:#D3AF59"/>
			<stop  offset="0.6453" style="stop-color:#F6D179"/>
			<stop  offset="0.861" style="stop-color:#F8C835"/>
			<stop  offset="0.9538" style="stop-color:#F8C835"/>
		</linearGradient>
		<path class="st12" d="M2704.8,2919.5v67.8c0.2,2.1,1.1,3.2,2.9,3.2c2.4,0,7-2.4,13.8-7.3c-2.3,4.9-5.6,9.3-10.1,13.3
			c-4.4,3.9-9.4,5.9-14.9,5.9c-5.5,0-9.4-1.7-11.6-5.2c-2.3-3.5-3.4-7.7-3.4-12.8v-52.5c0-3.4-0.3-6-1-7.9c-0.6-1.9-2.7-2.8-6.1-2.8
			c-5.3,0-10.9,4-16.7,11.9c-5.8,7.9-8.7,13.5-8.7,16.7v28.7c0,6.2-2.3,11.7-6.8,16.5c-4.5,4.9-10.1,7.3-16.7,7.3v-120.8
			c0-11.6,3.2-21.5,9.5-29.7c6.3-8.2,14.5-12.3,24.7-12.3h21.8c-5.2,9.4-11.9,14.3-20.1,14.9c-8.2,0.6-12.4,2.1-12.4,4.5v78.2
			c8-13.6,15.7-23.7,23-30.3c7.3-6.6,13.5-9.9,18.5-9.9c5.8,0,9.6,1.6,11.5,4.8C2703.9,2905.1,2704.8,2911,2704.8,2919.5z"/>
		<linearGradient id="SVGID_13_" gradientUnits="userSpaceOnUse" x1="2497.1892" y1="3082.332" x2="2497.1892" y2="2839.042">
			<stop  offset="0" style="stop-color:#E8B333"/>
			<stop  offset="0.1536" style="stop-color:#FDD065"/>
			<stop  offset="0.5483" style="stop-color:#D3AF59"/>
			<stop  offset="0.6453" style="stop-color:#F6D179"/>
			<stop  offset="0.861" style="stop-color:#F8C835"/>
			<stop  offset="0.9538" style="stop-color:#F8C835"/>
		</linearGradient>
		<path class="st13" d="M2783.8,2896.3c13.2,0,23.6,4.8,31.1,14.3c7.5,9.5,11.3,21.3,11.3,35.3c0,14.8-5.5,28-16.5,39.4
			c-11,11.4-23.3,17.2-36.8,17.2c-12.8,0-22.9-4.8-30.5-14.4c-7.6-9.6-11.4-21.6-11.4-36.1c0-14.5,5.3-27.4,16-38.7
			S2769.9,2896.3,2783.8,2896.3z M2752.3,2937.6c0,13.2,1.7,25.4,5.2,36.5c3.5,11.1,11.3,16.7,23.4,16.7c6.9,0,12.6-2.9,17-8.7
			s6.5-13.2,6.5-22.2c0-13-2.2-25-6.5-35.9c-4.4-10.9-11.8-16.3-22.3-16.3c-7.1,0-12.8,2.8-17,8.5
			C2754.4,2921.8,2752.3,2928.9,2752.3,2937.6z"/>
		<linearGradient id="SVGID_14_" gradientUnits="userSpaceOnUse" x1="2497.1892" y1="3082.332" x2="2497.1892" y2="2839.042">
			<stop  offset="0" style="stop-color:#E8B333"/>
			<stop  offset="0.1536" style="stop-color:#FDD065"/>
			<stop  offset="0.5483" style="stop-color:#D3AF59"/>
			<stop  offset="0.6453" style="stop-color:#F6D179"/>
			<stop  offset="0.861" style="stop-color:#F8C835"/>
			<stop  offset="0.9538" style="stop-color:#F8C835"/>
		</linearGradient>
		<path class="st14" d="M2907.6,2895.5c-2.7,4.4-4.8,8.7-6.1,13.1c-1.3,4.4-2.4,8.3-3.4,11.9c-5.2-5.9-10-10-14.5-12.3
			c-4.5-2.3-9.8-3.5-15.7-3.5c-6,0-10.2,1.1-12.6,3.2s-3.6,5-3.6,8.5c0,4.1,6.1,8.6,18.2,13.8c12.1,5.1,21.7,10.2,28.7,15.2
			s10.5,13.1,10.5,24.1c0,13-4,21.6-12,25.8c-8,4.2-18.1,6.3-30.4,6.3c-12.4,0-20.4-2.3-23.7-6.9c-3.4-4.6-5.1-15.9-5.1-33.8
			c3.1,8.4,8.1,16,15,22.8c6.9,6.8,15.3,10.2,25,10.2c11.1,0,16.7-5,16.7-15.1c0-4.9-5.9-10-17.7-15.3c-11.8-5.4-21-10.6-27.6-15.6
			c-6.6-5-9.9-13.5-9.9-25.3c0-10.2,3.1-17.3,9.4-21.2c6.3-3.9,14.7-5.8,25.2-5.8c2.7,0,6.5,0.6,11.4,1.7c4.8,1.2,7.7,1.7,8.5,1.7
			c2.6,0,4.8-0.2,6.5-0.6C2902.1,2897.9,2904.6,2897,2907.6,2895.5z"/>
		<linearGradient id="SVGID_15_" gradientUnits="userSpaceOnUse" x1="2497.1892" y1="3082.332" x2="2497.1892" y2="2839.042">
			<stop  offset="0" style="stop-color:#E8B333"/>
			<stop  offset="0.1536" style="stop-color:#FDD065"/>
			<stop  offset="0.5483" style="stop-color:#D3AF59"/>
			<stop  offset="0.6453" style="stop-color:#F6D179"/>
			<stop  offset="0.861" style="stop-color:#F8C835"/>
			<stop  offset="0.9538" style="stop-color:#F8C835"/>
		</linearGradient>
		<path class="st15" d="M2941.6,2896c2.9,0,4.7,1.3,5.5,3.9c0.7,2.6,1.1,9.9,1.1,21.8c4.4-5.3,8.8-10.7,13.3-16.2
			c6.3-6.3,13.4-9.4,21.3-9.4c5.5,0,11.9,4.4,19.1,13.2c7.3,8.8,10.9,21,10.9,36.7c0,16-6.4,29.4-19.3,40.2
			c-12.8,10.8-23.3,16.2-31.4,16.2c-2.1,0-4.5-0.9-7.1-2.8c-2.7-1.9-5-3.6-6.9-5.2v52.8c0,6,2.7,11.6,8.2,17
			c5.5,5.3,8.6,8.8,9.4,10.4c-7.6-3.9-12.6-6.2-15.1-7c-2.5-0.8-5.4-1.2-8.6-1.2c-4.7,0-8.4,0.6-11.3,1.9
			c-2.8,1.3-10.3,5.8-22.4,13.5c0.6-1.9,3.7-5.9,9.2-11.8c5.5-6,8.2-12.4,8.2-19.3v-126.9c0-1.6-0.4-2.7-1.2-3.4
			c-0.8-0.6-1.9-1-3.4-1c-2.9,0-5.6,0.6-8.1,1.9c-2.5,1.3-4.4,2.3-5.7,3.1c4.7-6.3,10-12.6,16-18.9
			C2929.4,2899.2,2935.4,2896,2941.6,2896z M2948.1,2971.6c0,4.4,1.7,8.4,5,12c3.3,3.6,7.5,5.5,12.5,5.5c7.3,0,13-4,17.3-11.9
			c4.3-7.9,6.4-16.3,6.4-25.2c0-12-1.6-20.6-4.7-25.9c-3.2-5.3-7.1-8-12-8c-5.5,0-10.9,2.5-16.4,7.6c-5.4,5.1-8.1,8.8-8.1,11.3
			V2971.6z"/>
		<linearGradient id="SVGID_16_" gradientUnits="userSpaceOnUse" x1="2497.1892" y1="3082.332" x2="2497.1892" y2="2839.042">
			<stop  offset="0" style="stop-color:#E8B333"/>
			<stop  offset="0.1536" style="stop-color:#FDD065"/>
			<stop  offset="0.5483" style="stop-color:#D3AF59"/>
			<stop  offset="0.6453" style="stop-color:#F6D179"/>
			<stop  offset="0.861" style="stop-color:#F8C835"/>
			<stop  offset="0.9538" style="stop-color:#F8C835"/>
		</linearGradient>
		<path class="st16" d="M3048.4,2896.3c5,0,8.5,1.9,10.5,5.8c2,3.9,3,8.5,3,13.8v68.1c0.6,4.5,2.3,6.8,5.1,6.8c1.9,0,4.2-1,6.8-3.1
			c2.6-2.1,4.3-3.5,5.1-4.1c-3.9,6.6-7.8,11.4-11.8,14.4c-4,3-8.4,4.5-13.4,4.5c-4.2,0-7.6-1.8-10.2-5.3c-2.6-3.5-3.9-7.7-3.9-12.6
			v-71.3c0-3.1-1.1-4.6-3.4-4.6c-3.1,0-7.8,2.7-14.3,8.2c0.8-3.1,4.1-7.3,9.9-12.6S3043.2,2896.3,3048.4,2896.3z M3051.6,2843.5
			c4,0,7.4,1.5,10.2,4.4c2.7,2.9,4.1,6.9,4.1,11.9c0,5.7-2.4,10.1-7.3,13.3c-4.8,3.2-9.2,4.8-13.1,4.8c-3.4,0-5.9-1.8-7.6-5.5
			c-1.7-3.6-2.5-7.9-2.5-12.7c0-6.1,1.5-10.4,4.4-12.7C3042.6,2844.6,3046.5,2843.5,3051.6,2843.5z"/>
		<linearGradient id="SVGID_17_" gradientUnits="userSpaceOnUse" x1="2497.1892" y1="3082.332" x2="2497.1892" y2="2839.042">
			<stop  offset="0" style="stop-color:#E8B333"/>
			<stop  offset="0.1536" style="stop-color:#FDD065"/>
			<stop  offset="0.5483" style="stop-color:#D3AF59"/>
			<stop  offset="0.6453" style="stop-color:#F6D179"/>
			<stop  offset="0.861" style="stop-color:#F8C835"/>
			<stop  offset="0.9538" style="stop-color:#F8C835"/>
		</linearGradient>
		<path class="st17" d="M3117.2,2897.2h19.9c-2.1,4.7-5.1,7.5-8.8,8.6c-3.8,1-7.5,1.7-11,1.8v73.2c0,3.5,1.4,5.3,4.1,5.3
			c2.3,0,5.1-1.1,8.6-3.2c3.5-2.1,7.6-5.4,12.5-9.9c-4.5,8.5-9.9,15.5-16,21c-6.1,5.5-12.4,8.3-18.7,8.3c-4.8,0-8.2-2-10.1-5.9
			c-1.9-3.9-2.8-11-2.8-21.1v-67.6h-14.3c0.5-3.7,4.8-7.8,13-12.4c8.2-4.6,16-16.5,23.6-35.9V2897.2z"/>
		<linearGradient id="SVGID_18_" gradientUnits="userSpaceOnUse" x1="2497.1892" y1="3082.332" x2="2497.1892" y2="2839.042">
			<stop  offset="0" style="stop-color:#E8B333"/>
			<stop  offset="0.1536" style="stop-color:#FDD065"/>
			<stop  offset="0.5483" style="stop-color:#D3AF59"/>
			<stop  offset="0.6453" style="stop-color:#F6D179"/>
			<stop  offset="0.861" style="stop-color:#F8C835"/>
			<stop  offset="0.9538" style="stop-color:#F8C835"/>
		</linearGradient>
		<path class="st18" d="M3239.3,2897.5v89.6c0.2,2.1,1.2,3.1,3.1,3.1c1.5,0,3.2-0.5,5.2-1.6c2-1,5.3-2.9,9.8-5.5
			c-2.1,4.4-5.6,8.6-10.5,12.8c-4.9,4.2-9.7,6.3-14.2,6.3c-2.6,0-5.9-1.8-10.1-5.3c-4.1-3.6-6.2-8.3-6.2-14.3v-13.1
			c-9.9,9.9-18.2,17.8-25,23.7c-6.8,6-12.7,9-17.7,9c-5.5,0-10.4-3.2-14.7-9.7c-4.3-6.5-6.4-15.1-6.4-25.9c0-22,6.1-39,18.2-51.1
			c12.1-12.1,27.9-18.2,47.2-18.2H3239.3z M3176.1,2948.4c0,7.9,1.3,13.7,3.9,17.4c2.6,3.7,6.1,5.6,10.7,5.6c3.9,0,8-1.2,12.5-3.5
			c4.4-2.3,8.9-5.5,13.4-9.6v-54c-12.1,0-21.9,4.5-29.3,13.4C3179.8,2926.7,3176.1,2936.9,3176.1,2948.4z"/>
		<linearGradient id="SVGID_19_" gradientUnits="userSpaceOnUse" x1="2497.1892" y1="3082.332" x2="2497.1892" y2="2839.042">
			<stop  offset="0" style="stop-color:#E8B333"/>
			<stop  offset="0.1536" style="stop-color:#FDD065"/>
			<stop  offset="0.5483" style="stop-color:#D3AF59"/>
			<stop  offset="0.6453" style="stop-color:#F6D179"/>
			<stop  offset="0.861" style="stop-color:#F8C835"/>
			<stop  offset="0.9538" style="stop-color:#F8C835"/>
		</linearGradient>
		<path class="st19" d="M3263.3,2881.4c0-11.6,3.2-21.5,9.6-29.6c6.4-8.1,14.7-12.2,24.8-12.2h21.8c-5.2,9.4-11.9,14.3-20.1,14.9
			c-8.2,0.6-12.4,2.1-12.4,4.5v123.3c0,2.9,1.1,4.4,3.4,4.4c1.9,0,4.6-1.1,7.9-3.3c3.3-2.2,7-5,11-8.6c-4,7.4-9.2,13.8-15.4,19.3
			c-6.2,5.5-11.8,8.3-16.8,8.3c-4.8,0-8.4-1.8-10.5-5.4c-2.2-3.6-3.3-8.6-3.3-14.9V2881.4z"/>
		<linearGradient id="SVGID_20_" gradientUnits="userSpaceOnUse" x1="2497.1892" y1="3082.332" x2="2497.1892" y2="2839.042">
			<stop  offset="0" style="stop-color:#E8B333"/>
			<stop  offset="0.1536" style="stop-color:#FDD065"/>
			<stop  offset="0.5483" style="stop-color:#D3AF59"/>
			<stop  offset="0.6453" style="stop-color:#F6D179"/>
			<stop  offset="0.861" style="stop-color:#F8C835"/>
			<stop  offset="0.9538" style="stop-color:#F8C835"/>
		</linearGradient>
		<path class="st20" d="M3341.3,2896.3c5,0,8.5,1.9,10.5,5.8c2,3.9,3,8.5,3,13.8v68.1c0.6,4.5,2.3,6.8,5.1,6.8c1.9,0,4.2-1,6.8-3.1
			c2.6-2.1,4.3-3.5,5.1-4.1c-3.9,6.6-7.8,11.4-11.8,14.4c-4,3-8.4,4.5-13.4,4.5c-4.2,0-7.6-1.8-10.2-5.3c-2.6-3.5-3.9-7.7-3.9-12.6
			v-71.3c0-3.1-1.1-4.6-3.4-4.6c-3.1,0-7.8,2.7-14.3,8.2c0.8-3.1,4.1-7.3,9.9-12.6S3336.2,2896.3,3341.3,2896.3z M3344.5,2843.5
			c4,0,7.4,1.5,10.2,4.4c2.7,2.9,4.1,6.9,4.1,11.9c0,5.7-2.4,10.1-7.3,13.3c-4.8,3.2-9.2,4.8-13.1,4.8c-3.4,0-5.9-1.8-7.6-5.5
			c-1.7-3.6-2.5-7.9-2.5-12.7c0-6.1,1.5-10.4,4.4-12.7C3335.5,2844.6,3339.5,2843.5,3344.5,2843.5z"/>
		<linearGradient id="SVGID_21_" gradientUnits="userSpaceOnUse" x1="2497.1892" y1="3082.332" x2="2497.1892" y2="2839.042">
			<stop  offset="0" style="stop-color:#E8B333"/>
			<stop  offset="0.1536" style="stop-color:#FDD065"/>
			<stop  offset="0.5483" style="stop-color:#D3AF59"/>
			<stop  offset="0.6453" style="stop-color:#F6D179"/>
			<stop  offset="0.861" style="stop-color:#F8C835"/>
			<stop  offset="0.9538" style="stop-color:#F8C835"/>
		</linearGradient>
		<path class="st21" d="M3410.1,2897.2h19.9c-2.1,4.7-5.1,7.5-8.8,8.6c-3.8,1-7.5,1.7-11,1.8v73.2c0,3.5,1.4,5.3,4.1,5.3
			c2.3,0,5.1-1.1,8.6-3.2c3.5-2.1,7.6-5.4,12.5-9.9c-4.5,8.5-9.9,15.5-16,21c-6.1,5.5-12.4,8.3-18.7,8.3c-4.8,0-8.2-2-10.1-5.9
			c-1.9-3.9-2.8-11-2.8-21.1v-67.6h-14.3c0.5-3.7,4.8-7.8,13-12.4c8.2-4.6,16-16.5,23.6-35.9V2897.2z"/>
		<linearGradient id="SVGID_22_" gradientUnits="userSpaceOnUse" x1="2497.1892" y1="3082.332" x2="2497.1892" y2="2839.042">
			<stop  offset="0" style="stop-color:#E8B333"/>
			<stop  offset="0.1536" style="stop-color:#FDD065"/>
			<stop  offset="0.5483" style="stop-color:#D3AF59"/>
			<stop  offset="0.6453" style="stop-color:#F6D179"/>
			<stop  offset="0.861" style="stop-color:#F8C835"/>
			<stop  offset="0.9538" style="stop-color:#F8C835"/>
		</linearGradient>
		<path class="st22" d="M3531,2892.2c2.4,0,6.3,3.4,11.6,10.2c5.3,6.8,8,14.1,8,21.8c0,3.9-5.8,16.2-17.5,36.8
			c-11.7,20.7-20.4,36.9-26.3,48.8c-5.8,11.9-8.8,22.6-8.8,32.1c0,7.9,2.3,15,6.9,21.3c4.6,6.3,10.8,9.4,18.4,9.4
			c6.3,0,11.2-1.7,14.7-5c3.5-3.3,7-9.2,10.6-17.6c0,12.4-3.7,20.9-11,25.4c-7.4,4.5-15.9,6.8-25.6,6.8c-12.6,0-21.8-2.1-27.6-6.2
			c-5.8-4.1-8.7-11.5-8.7-22.2c0-8.6,2.5-16.9,7.6-25.1c5.1-8.2,12.2-18.3,21.4-30.4c-2.9-6.5-6.9-15.3-12-26.6
			c-5.1-11.3-10.7-22.5-16.8-33.7c-6.1-11.1-10.2-17-12.2-17.4c-2-0.5-3.8-0.7-5.5-0.7c-3.7,0-7.6,0.8-11.6,2.5
			c-4,1.7-7.9,3.7-11.6,5.9c4.7-7.3,10.5-14.5,17.3-21.7c6.9-7.2,13-10.8,18.5-10.8c7.4,0,16.5,11.4,27.3,34.3
			c10.7,22.9,18.1,37,22.2,42.5c2.6-4.7,5.1-9.9,7.5-15.6c2.4-5.7,3.6-11.6,3.6-17.6c0-6.6-1.7-12.2-5-16.8
			c-3.3-4.6-8.2-8.4-14.7-11.3c2.4-4.4,5.1-8.7,8-13C3522.8,2894.3,3526.5,2892.2,3531,2892.2z"/>
	</g>
</g>
<text transform="matrix(0.9999 0 0 1 1780.1562 1805.5312)" class="st23 st24">O</text>
<text id="O-2" transform="matrix(0.9999 0 0 1 1780.1562 1805.5312)" class="st25 st23 st24">O</text>
<g>
	<path class="st26" d="M3101.2,981.2c0,0-318.8,309.3-675.8,393.4c-357,84.1-544.9,0-544.9,0s167.7,300.1,402.7,354.9
		c235,54.8,421.7,74.2,618-109.6c196.3-183.7,256.8-296,249.3-417C3143,1082.1,3101.2,981.2,3101.2,981.2z"/>
	<circle class="st27" cx="2508.3" cy="1110.5" r="658.6"/>
</g>
<linearGradient id="SVGID_23_" gradientUnits="userSpaceOnUse" x1="2604.2888" y1="787.2732" x2="2273.9758" y2="1359.3922">
	<stop  offset="0" style="stop-color:#E8B333"/>
	<stop  offset="0.1536" style="stop-color:#FDD065"/>
	<stop  offset="0.5483" style="stop-color:#D3AF59"/>
	<stop  offset="0.6453" style="stop-color:#F6D179"/>
	<stop  offset="0.8305" style="stop-color:#F8C835"/>
	<stop  offset="1" style="stop-color:#FFAC2A"/>
</linearGradient>
<path class="st28" d="M2974.1,572.2c260.4,57.3,314.5,270.4,162.5,472.6c-173.8,231.2-474.8,372.1-823.4,427.1
	c-265.8,41.9-615.2-34.2-582.2-294.2c9.7-76.6,36-143.9,78.8-188.3c-14.8,53.3-48.9,93.8-41.8,171.1
	c47.8,525.1,1543.8,54.3,1344-470.2C3086.2,622.9,3035.8,602.2,2974.1,572.2z"/>
<image style="display:none;overflow:visible;" width="1185" height="2592" xlink:href="../color.jpg"  transform="matrix(0.6498 0 0 0.5933 371.24 690.04)">
</image>
<g>
	<g>
		<linearGradient id="SVGID_24_" gradientUnits="userSpaceOnUse" x1="2812.1943" y1="2008.525" x2="2954.4592" y2="2815.3496">
			<stop  offset="0" style="stop-color:#E8B333"/>
			<stop  offset="0.1536" style="stop-color:#FDD065"/>
			<stop  offset="0.5483" style="stop-color:#D3AF59"/>
			<stop  offset="0.6453" style="stop-color:#F6D179"/>
			<stop  offset="0.861" style="stop-color:#F8C835"/>
			<stop  offset="0.9538" style="stop-color:#F8C835"/>
		</linearGradient>
		<path class="st29" d="M2315.1,2262.2c19.9,0,32.6,9.5,37.9,28.4s8,51.9,8,99.1v48.2c27.2-37.8,54.7-75.7,82.6-113.5
			c35-41.4,69.7-62.1,104.1-62.1c19.3,0,34.5,7,45.6,20.9c11.1,14,16.6,31,16.6,51c0,24.3-13.6,51.3-40.7,80.9
			c-27.1,29.6-53.9,57.3-80.3,83c3.6-7.1,7.3-19.1,11.2-35.9s5.9-31.6,5.9-44.5c0-15.7-2.7-28.5-8.1-38.5s-14.5-15-27.4-15
			c-13.6,0-30.6,12.3-51,37c-20.4,24.7-39.9,49.3-58.5,74v200.2c-12.1,11.4-26.3,23-42.6,34.8c-16.3,11.8-35.1,19.1-56.4,22v-354.1
			c0-15-7.2-22.5-21.5-22.5c-6.4,0-14,2.3-22.5,7s-18.2,12.3-29,23c11.4-23.6,31.7-50.1,60.9-79.4
			C2279.1,2276.9,2300.8,2262.2,2315.1,2262.2z"/>
		<linearGradient id="SVGID_25_" gradientUnits="userSpaceOnUse" x1="2812.1943" y1="2008.525" x2="2954.4592" y2="2815.3496">
			<stop  offset="0" style="stop-color:#E8B333"/>
			<stop  offset="0.1536" style="stop-color:#FDD065"/>
			<stop  offset="0.5483" style="stop-color:#D3AF59"/>
			<stop  offset="0.6453" style="stop-color:#F6D179"/>
			<stop  offset="0.861" style="stop-color:#F8C835"/>
			<stop  offset="0.9538" style="stop-color:#F8C835"/>
		</linearGradient>
		<path class="st30" d="M2758.4,2443.2c35.6-59,69.5-103,101.6-131.8s59.5-43.2,82.3-43.2c25.7,0,42.6,7,50.8,20.9
			c8.2,13.9,12.3,39.4,12.3,76.5V2496c0,73.4-20.2,131-60.5,172.7s-89.4,62.5-147.2,62.5c-42.8,0-77.2-14.3-103.3-42.8
			s-39.1-78.1-39.1-148.7v-342.4c0-52.1,13.7-95.9,41.2-131.6c27.5-35.7,63.6-53.5,108.6-53.5h96.3c-22.8,41.4-52.3,63.3-88.6,65.8
			s-54.4,9.1-54.4,19.8V2443.2z M2758.4,2591.1c0,62.7,22.8,94.1,68.5,94.1c19.2,0,36.5-9.8,51.9-29.4c15.3-19.6,23-52.5,23-98.8
			v-136.8c0-15-1.4-26.5-4.3-34.7c-2.9-8.2-11.8-12.3-26.7-12.3c-23.5,0-48.1,17.5-73.8,52.3s-38.5,59.4-38.5,73.7V2591.1z"/>
		<linearGradient id="SVGID_26_" gradientUnits="userSpaceOnUse" x1="2812.1943" y1="2008.525" x2="2954.4592" y2="2815.3496">
			<stop  offset="0" style="stop-color:#E8B333"/>
			<stop  offset="0.1536" style="stop-color:#FDD065"/>
			<stop  offset="0.5483" style="stop-color:#D3AF59"/>
			<stop  offset="0.6453" style="stop-color:#F6D179"/>
			<stop  offset="0.861" style="stop-color:#F8C835"/>
			<stop  offset="0.9538" style="stop-color:#F8C835"/>
		</linearGradient>
		<path class="st31" d="M3157.4,2262.2c22.2,0,37.7,8.6,46.7,25.7c8.9,17.2,13.4,37.5,13.4,61.1v301.1c2.8,20,10.3,30,22.5,30
			c8.6,0,18.6-4.6,30-13.9c11.4-9.3,18.9-15.3,22.5-18.2c-17.2,29.2-34.6,50.5-52.1,64c-17.5,13.5-37.4,20.2-59.6,20.2
			c-18.6,0-33.7-7.8-45.1-23.5c-11.5-15.7-17.2-34.2-17.2-55.6v-315.5c0-13.5-5-20.3-15-20.3c-13.5,0-34.6,12.1-63,36.3
			c3.6-13.6,18.2-32.2,44-55.8S3134.5,2262.2,3157.4,2262.2z M3171.3,2029.2c17.9,0,32.9,6.4,45,19.3s18.2,30.3,18.2,52.5
			c0,25-10.7,44.6-32.1,58.9c-21.4,14.3-40.7,21.4-57.9,21.4c-15,0-26.2-8-33.8-24.1s-11.2-34.8-11.2-56.2
			c0-27.1,6.4-45.8,19.3-56.2S3149.1,2029.2,3171.3,2029.2z"/>
		<linearGradient id="SVGID_27_" gradientUnits="userSpaceOnUse" x1="2812.1943" y1="2008.525" x2="2954.4592" y2="2815.3496">
			<stop  offset="0" style="stop-color:#E8B333"/>
			<stop  offset="0.1536" style="stop-color:#FDD065"/>
			<stop  offset="0.5483" style="stop-color:#D3AF59"/>
			<stop  offset="0.6453" style="stop-color:#F6D179"/>
			<stop  offset="0.861" style="stop-color:#F8C835"/>
			<stop  offset="0.9538" style="stop-color:#F8C835"/>
		</linearGradient>
		<path class="st32" d="M3459.9,2266.7h87.5c-9.2,20.7-22.2,33.3-39,38s-32.9,7.3-48.6,8v324c0,15.7,6,23.5,18.2,23.5
			c10,0,22.6-4.7,37.9-14.2c15.3-9.5,33.6-24.1,55-43.8c-20,37.7-43.6,68.7-70.8,93.2c-27.2,24.5-54.7,36.8-82.5,36.8
			c-21.4,0-36.3-8.7-44.5-26.2s-12.3-48.7-12.3-93.6v-299.5h-63c2.2-16.4,21.3-34.8,57.4-55.1c36.1-20.3,71-73.3,104.6-158.8V2266.7
			z"/>
	</g>
</g>
</svg>
